<?xml version="1.0" encoding="utf-8"?>
<!-- Generator: Adobe Illustrator 16.0.0, SVG Export Plug-In . SVG Version: 6.00 Build 0)  -->
<!DOCTYPE svg PUBLIC "-//W3C//DTD SVG 1.1//EN" "http://www.w3.org/Graphics/SVG/1.1/DTD/svg11.dtd">
<svg version="1.1" id="Layer_1" xmlns="http://www.w3.org/2000/svg" xmlns:xlink="http://www.w3.org/1999/xlink" x="0px" y="0px"
	 width="205px" height="30px" viewBox="0 0 205 30" enable-background="new 0 0 205 30" xml:space="preserve">
<g>
	<path fill="#5C5B5D" d="M5.034,3.685l8.353,19.986l8.382-19.986h2.551V26.33h-1.913v-9.86l0.155-10.109L14.133,26.33h-1.478
		L4.257,6.438l0.156,9.97v9.922H2.5V3.685H5.034z"/>
	<path fill="#5C5B5D" d="M36.265,16.033l6.921-12.348h2.208l-8.18,14.123v8.522H35.3v-8.522L27.135,3.685h2.271L36.265,16.033z"/>
	<path fill="#5C5B5D" d="M52.999,18.646v7.685H47.54V3.685h9.036c1.731,0,3.263,0.32,4.596,0.957
		c1.332,0.638,2.363,1.545,3.095,2.722c0.731,1.177,1.096,2.512,1.096,4.006c0,2.208-0.791,3.973-2.372,5.295
		c-1.581,1.321-3.751,1.981-6.509,1.981H52.999z M52.999,14.433h3.577c1.058,0,1.864-0.265,2.419-0.793
		c0.554-0.528,0.832-1.275,0.832-2.24c0-1.058-0.286-1.902-0.855-2.534C58.4,8.233,57.623,7.911,56.638,7.9h-3.639V14.433z"/>
	<path fill="#5C5B5D" d="M76.686,18.319H73.73v8.011h-5.458V3.685h8.912c2.685,0,4.785,0.596,6.299,1.788
		c1.514,1.19,2.271,2.874,2.271,5.049c0,1.574-0.319,2.879-0.957,3.915c-0.637,1.035-1.636,1.875-2.994,2.516l4.728,9.143v0.234
		h-5.848L76.686,18.319z M73.73,14.121h3.453c1.037,0,1.817-0.272,2.341-0.818c0.523-0.546,0.786-1.308,0.786-2.284
		c0-0.978-0.265-1.744-0.794-2.3c-0.529-0.556-1.306-0.834-2.333-0.834H73.73V14.121z"/>
	<path fill="#5C5B5D" d="M103.095,16.72h-8.585v5.411h10.141v4.199h-15.6V3.685h15.63V7.9H94.509v4.774h8.585V16.72z"/>
	<path fill="#5C5B5D" d="M125.195,18.662c-0.073,1.576-0.498,2.969-1.275,4.177s-1.869,2.144-3.274,2.807
		c-1.404,0.665-3.008,0.996-4.813,0.996c-2.975,0-5.318-0.97-7.028-2.91c-1.712-1.938-2.567-4.674-2.567-8.209v-1.12
		c0-2.22,0.386-4.161,1.159-5.825c0.771-1.664,1.885-2.95,3.336-3.858c1.451-0.907,3.132-1.36,5.039-1.36
		c2.748,0,4.956,0.724,6.626,2.17c1.668,1.446,2.618,3.439,2.846,5.98h-5.444c-0.041-1.38-0.389-2.369-1.042-2.971
		c-0.653-0.602-1.647-0.902-2.985-0.902c-1.358,0-2.354,0.508-2.986,1.523c-0.633,1.017-0.964,2.64-0.995,4.869v1.602
		c0,2.416,0.304,4.142,0.909,5.178c0.607,1.038,1.651,1.557,3.134,1.557c1.256,0,2.215-0.296,2.877-0.886
		c0.665-0.593,1.018-1.53,1.058-2.816H125.195z"/>
	<path fill="#5C5B5D" d="M133.594,26.33h-5.444V3.685h5.444V26.33z"/>
	<path fill="#5C5B5D" d="M181.953,3.685v14.823c0,1.679-0.356,3.133-1.072,4.362c-0.715,1.229-1.741,2.164-3.08,2.807
		c-1.337,0.643-2.919,0.965-4.742,0.965c-2.759,0-4.931-0.716-6.518-2.147c-1.586-1.43-2.395-3.39-2.427-5.879V3.685h5.492v15.04
		c0.061,2.479,1.212,3.717,3.452,3.717c1.13,0,1.985-0.311,2.566-0.933c0.581-0.623,0.871-1.634,0.871-3.032V3.685H181.953z"/>
	<path fill="#5C5B5D" d="M197.042,20.311c0-0.798-0.284-1.42-0.849-1.866c-0.565-0.444-1.559-0.906-2.979-1.384
		c-1.421-0.477-2.582-0.938-3.484-1.384c-2.934-1.44-4.4-3.422-4.4-5.941c0-1.255,0.365-2.361,1.096-3.32s1.766-1.705,3.103-2.24
		c1.339-0.534,2.841-0.8,4.512-0.8c1.627,0,3.087,0.291,4.377,0.871c1.291,0.581,2.295,1.408,3.01,2.481
		c0.715,1.073,1.073,2.299,1.073,3.678h-5.444c0-0.923-0.282-1.638-0.848-2.146c-0.564-0.509-1.328-0.763-2.293-0.763
		c-0.975,0-1.745,0.215-2.31,0.645c-0.566,0.43-0.849,0.978-0.849,1.642c0,0.581,0.312,1.107,0.934,1.578
		c0.623,0.472,1.715,0.959,3.282,1.462c1.564,0.502,2.852,1.044,3.857,1.625c2.447,1.41,3.67,3.355,3.67,5.832
		c0,1.981-0.746,3.537-2.24,4.667c-1.493,1.13-3.54,1.695-6.143,1.695c-1.836,0-3.498-0.329-4.984-0.987
		c-1.488-0.659-2.607-1.561-3.36-2.707c-0.752-1.146-1.128-2.466-1.128-3.958h5.477c0,1.213,0.313,2.107,0.939,2.683
		c0.627,0.574,1.646,0.864,3.057,0.864c0.9,0,1.615-0.195,2.139-0.585C196.779,21.563,197.042,21.017,197.042,20.311z"/>
	<circle fill="#FFDE17" cx="148.713" cy="15" r="12.662"/>
</g>
</svg>
