<?xml version="1.0" encoding="utf-8"?>
<!-- Generator: Adobe Illustrator 16.0.0, SVG Export Plug-In . SVG Version: 6.00 Build 0)  -->
<!DOCTYPE svg PUBLIC "-//W3C//DTD SVG 1.1//EN" "http://www.w3.org/Graphics/SVG/1.1/DTD/svg11.dtd">
<svg version="1.1" id="Layer_1" xmlns="http://www.w3.org/2000/svg" xmlns:xlink="http://www.w3.org/1999/xlink" x="0px" y="0px"
	 width="205px" height="30px" viewBox="0 0 205 30" enable-background="new 0 0 205 30" xml:space="preserve">
<g>
	<path fill="#5C5B5D" d="M25.526,6.064l6.597,15.784l6.62-15.784h2.015v17.884h-1.511v-7.787l0.123-7.984l-6.657,15.771h-1.167
		l-6.632-15.71l0.124,7.874v7.836h-1.511V6.064H25.526z"/>
	<path fill="#5C5B5D" d="M50.19,15.816l5.466-9.752H57.4l-6.46,11.154v6.73h-1.512v-6.73L42.98,6.064h1.794L50.19,15.816z"/>
	<path fill="#5C5B5D" d="M63.406,17.88v6.069h-4.311V6.064h7.136c1.367,0,2.577,0.252,3.629,0.756
		c1.052,0.503,1.867,1.22,2.444,2.149c0.578,0.93,0.866,1.984,0.866,3.164c0,1.744-0.625,3.138-1.873,4.182
		c-1.249,1.043-2.962,1.564-5.141,1.564H63.406z M63.406,14.552h2.825c0.835,0,1.472-0.209,1.91-0.626
		c0.438-0.417,0.657-1.007,0.657-1.77c0-0.835-0.226-1.502-0.675-2.001c-0.452-0.5-1.065-0.754-1.843-0.763h-2.874V14.552z"/>
	<path fill="#5C5B5D" d="M82.113,17.621h-2.334v6.327h-4.311V6.064h7.039c2.121,0,3.778,0.47,4.975,1.412
		c1.196,0.94,1.793,2.27,1.793,3.987c0,1.243-0.252,2.274-0.756,3.092c-0.503,0.818-1.292,1.481-2.365,1.988l3.734,7.22v0.186H85.27
		L82.113,17.621z M79.779,14.306h2.727c0.819,0,1.435-0.214,1.849-0.646c0.413-0.432,0.621-1.033,0.621-1.804
		c0-0.772-0.209-1.377-0.627-1.816c-0.418-0.439-1.032-0.659-1.843-0.659h-2.727V14.306z"/>
	<path fill="#5C5B5D" d="M102.971,16.359H96.19v4.272h8.008v3.316h-12.32V6.064h12.344v3.329h-8.034v3.771h6.78v3.196H102.971z"/>
	<path fill="#5C5B5D" d="M120.424,17.893c-0.058,1.244-0.394,2.344-1.007,3.298c-0.614,0.954-1.477,1.693-2.586,2.218
		c-1.108,0.524-2.375,0.786-3.801,0.786c-2.351,0-4.2-0.767-5.551-2.298c-1.353-1.531-2.027-3.691-2.027-6.483v-0.885
		c0-1.753,0.305-3.286,0.915-4.6c0.609-1.314,1.489-2.33,2.635-3.047c1.146-0.716,2.474-1.074,3.979-1.074
		c2.17,0,3.915,0.572,5.233,1.714c1.317,1.142,2.067,2.716,2.248,4.723h-4.3c-0.032-1.09-0.308-1.871-0.823-2.347
		s-1.301-0.712-2.357-0.712c-1.072,0-1.859,0.401-2.358,1.203c-0.499,0.804-0.761,2.085-0.785,3.845v1.265
		c0,1.908,0.239,3.271,0.718,4.089c0.479,0.821,1.304,1.23,2.475,1.23c0.992,0,1.749-0.233,2.272-0.699
		c0.525-0.469,0.805-1.209,0.835-2.225L120.424,17.893L120.424,17.893z"/>
	<path fill="#5C5B5D" d="M127.057,23.948h-4.299V6.064h4.299V23.948z"/>
	<path fill="#5C5B5D" d="M165.249,6.064v11.707c0,1.326-0.281,2.474-0.847,3.445c-0.564,0.971-1.375,1.709-2.433,2.217
		c-1.056,0.508-2.306,0.762-3.745,0.762c-2.179,0-3.895-0.565-5.147-1.695s-1.892-2.677-1.917-4.644V6.064h4.337v11.877
		c0.049,1.958,0.958,2.936,2.728,2.936c0.892,0,1.566-0.245,2.025-0.736s0.688-1.291,0.688-2.395V6.064H165.249z"/>
	<path fill="#5C5B5D" d="M177.165,19.194c0-0.63-0.224-1.122-0.67-1.474c-0.446-0.351-1.231-0.716-2.353-1.094
		c-1.123-0.376-2.04-0.74-2.752-1.092c-2.317-1.138-3.475-2.703-3.475-4.692c0-0.991,0.288-1.865,0.865-2.622
		s1.395-1.347,2.451-1.769c1.057-0.422,2.243-0.632,3.563-0.632c1.285,0,2.438,0.23,3.457,0.688c1.02,0.459,1.813,1.112,2.377,1.959
		s0.848,1.815,0.848,2.904h-4.3c0-0.729-0.222-1.293-0.669-1.694c-0.446-0.402-1.049-0.603-1.812-0.603
		c-0.77,0-1.378,0.169-1.824,0.509c-0.446,0.339-0.671,0.772-0.671,1.297c0,0.458,0.246,0.874,0.738,1.246
		c0.492,0.373,1.354,0.757,2.592,1.154c1.235,0.397,2.253,0.825,3.046,1.283c1.934,1.114,2.898,2.65,2.898,4.606
		c0,1.564-0.589,2.794-1.769,3.685c-1.179,0.894-2.796,1.339-4.852,1.339c-1.45,0-2.763-0.259-3.937-0.778
		c-1.175-0.521-2.06-1.232-2.653-2.138c-0.594-0.906-0.892-1.948-0.892-3.126h4.326c0,0.958,0.248,1.663,0.741,2.118
		c0.495,0.454,1.301,0.683,2.415,0.683c0.71,0,1.274-0.153,1.688-0.462C176.958,20.183,177.165,19.752,177.165,19.194z"/>
	<circle fill="#FFDE17" cx="138.997" cy="15" r="10"/>
</g>
</svg>
