<?xml version="1.0" encoding="utf-8"?>
<!-- Generator: Adobe Illustrator 16.0.0, SVG Export Plug-In . SVG Version: 6.00 Build 0)  -->
<!DOCTYPE svg PUBLIC "-//W3C//DTD SVG 1.1//EN" "http://www.w3.org/Graphics/SVG/1.1/DTD/svg11.dtd">
<svg version="1.1" id="Layer_1" xmlns="http://www.w3.org/2000/svg" xmlns:xlink="http://www.w3.org/1999/xlink" x="0px" y="0px"
	 width="40px" height="25px" viewBox="0 0 40 25" enable-background="new 0 0 40 25" xml:space="preserve">
<g>
	<g>
		<g>
			<path fill="#FEE900" d="M0.949,0.521v11.207h11.207V0.521H0.949z M10.906,10.479H2.199V1.771h8.707V10.479z"/>
			<rect x="3.449" y="3.021" fill="#FEE900" width="6.207" height="6.207"/>
		</g>
		<g>
			<path fill="#FEE900" d="M14.397,0.521v11.207h11.207V0.521H14.397z M24.354,10.479h-8.707V1.771h8.707V10.479z"/>
			<rect x="16.897" y="3.021" fill="#FEE900" width="6.207" height="6.207"/>
		</g>
		<g>
			<path fill="#FEE900" d="M27.844,0.521v11.207h11.207V0.521H27.844z M37.801,10.479h-8.707V1.771h8.707V10.479z"/>
			<rect x="30.344" y="3.021" fill="#FEE900" width="6.207" height="6.207"/>
		</g>
	</g>
	<g>
		<g>
			<path fill="#FEE900" d="M0.949,13.271v11.207h11.207V13.271H0.949z M10.906,23.229H2.199v-8.707h8.707V23.229z"/>
			<rect x="3.449" y="15.771" fill="#FEE900" width="6.207" height="6.207"/>
		</g>
		<g>
			<path fill="#FEE900" d="M14.397,13.271v11.207h11.207V13.271H14.397z M24.354,23.229h-8.707v-8.707h8.707V23.229z"/>
			<rect x="16.897" y="15.771" fill="#FEE900" width="6.207" height="6.207"/>
		</g>
		<g>
			<path fill="#FEE900" d="M27.844,13.271v11.207h11.207V13.271H27.844z M37.801,23.229h-8.707v-8.707h8.707V23.229z"/>
			<rect x="30.344" y="15.771" fill="#FEE900" width="6.207" height="6.207"/>
		</g>
	</g>
</g>
</svg>
