<?xml version="1.0" encoding="utf-8"?>
<!-- Generator: Adobe Illustrator 16.0.0, SVG Export Plug-In . SVG Version: 6.00 Build 0)  -->
<!DOCTYPE svg PUBLIC "-//W3C//DTD SVG 1.1//EN" "http://www.w3.org/Graphics/SVG/1.1/DTD/svg11.dtd">
<svg version="1.1" id="Layer_1" xmlns="http://www.w3.org/2000/svg" xmlns:xlink="http://www.w3.org/1999/xlink" x="0px" y="0px"
	 width="32px" height="20px" viewBox="4 2.5 32 20" enable-background="new 4 2.5 32 20" xml:space="preserve">
<g>
	<g>
		<g>
			<path fill="#303032" d="M4.892,3v8.888h8.888V3H4.892z M12.788,10.897H5.883V3.991h6.905V10.897z"/>
			<rect x="6.874" y="4.982" fill="#303032" width="4.923" height="4.923"/>
		</g>
		<g>
			<path fill="#303032" d="M15.557,3v8.888h8.888V3H15.557z M23.453,10.897h-6.905V3.991h6.905V10.897z"/>
			<rect x="17.539" y="4.982" fill="#303032" width="4.922" height="4.923"/>
		</g>
		<g>
			<path fill="#303032" d="M26.221,3v8.888h8.888V3H26.221z M34.117,10.897h-6.905V3.991h6.905V10.897z"/>
			<rect x="28.203" y="4.982" fill="#303032" width="4.923" height="4.923"/>
		</g>
	</g>
	<g>
		<g>
			<path fill="#303032" d="M4.892,13.111V22h8.888v-8.889H4.892z M12.788,21.009H5.883v-6.905h6.905V21.009z"/>
			<rect x="6.874" y="15.095" fill="#303032" width="4.923" height="4.922"/>
		</g>
		<g>
			<path fill="#303032" d="M15.557,13.111V22h8.888v-8.889H15.557z M23.453,21.009h-6.905v-6.905h6.905V21.009z"/>
			<rect x="17.539" y="15.095" fill="#303032" width="4.922" height="4.922"/>
		</g>
		<g>
			<path fill="#303032" d="M26.221,13.111V22h8.888v-8.889H26.221z M34.117,21.009h-6.905v-6.905h6.905V21.009z"/>
			<rect x="28.203" y="15.095" fill="#303032" width="4.923" height="4.922"/>
		</g>
	</g>
</g>
</svg>
