<?xml version="1.0" encoding="utf-8"?>
<!-- Generator: Adobe Illustrator 16.0.0, SVG Export Plug-In . SVG Version: 6.00 Build 0)  -->
<!DOCTYPE svg PUBLIC "-//W3C//DTD SVG 1.1//EN" "http://www.w3.org/Graphics/SVG/1.1/DTD/svg11.dtd">
<svg version="1.1" id="Layer_1" xmlns="http://www.w3.org/2000/svg" xmlns:xlink="http://www.w3.org/1999/xlink" x="0px" y="0px"
	 width="18px" height="18px" viewBox="0 0 18 18" enable-background="new 0 0 18 18" xml:space="preserve">
<g>
	<path d="M9,4.811l0.775,2.407l0.158,0.491h0.517h2.332l-1.903,1.355l-0.424,0.302l0.161,0.495l0.743,2.28l-1.942-1.414L9,10.423
		l-0.417,0.304l-1.942,1.414l0.743-2.28l0.161-0.495L7.121,9.063L5.218,7.708H7.55h0.516l0.158-0.491L9,4.811 M9,2.5L7.55,7H3
		l3.71,2.641L5.29,14L9,11.3l3.71,2.7l-1.42-4.359L15,7h-4.55L9,2.5L9,2.5z"/>
</g>
</svg>
