<?xml version="1.0" encoding="utf-8"?>
<!-- Generator: Adobe Illustrator 16.0.0, SVG Export Plug-In . SVG Version: 6.00 Build 0)  -->
<!DOCTYPE svg PUBLIC "-//W3C//DTD SVG 1.1//EN" "http://www.w3.org/Graphics/SVG/1.1/DTD/svg11.dtd">
<svg version="1.1" id="Layer_1" xmlns="http://www.w3.org/2000/svg" xmlns:xlink="http://www.w3.org/1999/xlink" x="0px" y="0px"
	 width="40px" height="40px" viewBox="0 0 40 40" enable-background="new 0 0 40 40" xml:space="preserve">
<g>
	<path fill="#FFE41B" d="M20,2.5c-9.661,0-17.5,7.841-17.5,17.501C2.5,29.661,10.339,37.5,20,37.5
		c9.659,0,17.501-7.839,17.501-17.499C37.501,10.341,29.659,2.5,20,2.5z M20,7.75c2.906,0,5.25,2.346,5.25,5.25
		c0,2.905-2.344,5.25-5.25,5.25c-2.905,0-5.25-2.344-5.25-5.25C14.75,10.097,17.095,7.75,20,7.75z M20,32.6
		c-4.375,0-8.245-2.24-10.5-5.633c0.051-3.481,7-5.39,10.5-5.39c3.482,0,10.448,1.908,10.5,5.39C28.24,30.359,24.375,32.6,20,32.6z"
		/>
</g>
</svg>
