<?xml version="1.0" encoding="utf-8"?>
<!-- Generator: Adobe Illustrator 16.0.0, SVG Export Plug-In . SVG Version: 6.00 Build 0)  -->
<!DOCTYPE svg PUBLIC "-//W3C//DTD SVG 1.1//EN" "http://www.w3.org/Graphics/SVG/1.1/DTD/svg11.dtd">
<svg version="1.1" id="Layer_1" xmlns="http://www.w3.org/2000/svg" xmlns:xlink="http://www.w3.org/1999/xlink" x="0px" y="0px"
	 width="35px" height="35px" viewBox="2.5 2.5 35 35" enable-background="new 2.5 2.5 35 35" xml:space="preserve">
<g>
	<path fill="#FFE41B" d="M20,6C12.271,6,6,12.272,6,20.001C6,27.729,12.271,34,20,34c7.728,0,14.001-6.271,14.001-13.999
		C34.001,12.272,27.728,6,20,6z M20,10.2c2.325,0,4.2,1.877,4.2,4.2c0,2.324-1.875,4.2-4.2,4.2c-2.324,0-4.2-1.875-4.2-4.2
		C15.8,12.078,17.676,10.2,20,10.2z M20,30.08c-3.5,0-6.596-1.793-8.4-4.507c0.041-2.784,5.6-4.312,8.4-4.312
		c2.786,0,8.358,1.525,8.4,4.312C26.592,28.287,23.5,30.08,20,30.08z"/>
</g>
</svg>
